# xmcd
#
# Track frame offsets: 
#        150
#        11638
#        28235
#        45930
#        77165
#        95790
#        113152
#        128448
#        143445
#        158697
#
# Disc length: 2434 seconds
#
# Revision: 0
# Processed by: cddbd v1.5.2PL0 Copyright (c) Steve Scherf et al.
# Submitted via: ExactAudioCopy v0.99pb5
#
DISCID=7109800a
DTITLE=Michael Nesmith - Infinite Rider On The Big Dogma
DYEAR=1900
DGENRE=American
TTITLE0=Dunce
TTITLE1=Magic
TTITLE2=Tonite
TTITLE3=Flying (long version)
TTITLE4=Carioca
TTITLE5=Cruisin'
TTITLE6=Factions
TTITLE7=Light
TTITLE8=Horserace
TTITLE9=Capsule
EXTD=
EXTT0=
EXTT1=
EXTT2=
EXTT3=
EXTT4=
EXTT5=
EXTT6=
EXTT7=
EXTT8=
EXTT9=
PLAYORDER=
